<?xml version="1.0" standalone="no"?>
<svg xmlns:xlink="http://www.w3.org/1999/xlink" id="wave" style="transform:rotate(180deg); transition: 0.3s" viewBox="0 0 1440 230" version="1.1" xmlns="http://www.w3.org/2000/svg"><defs><linearGradient id="sw-gradient-0" x1="0" x2="0" y1="1" y2="0"><stop stop-color="rgba(211, 221.776, 255, 1)" offset="0%"/><stop stop-color="rgba(255, 180.767, 209.842, 1)" offset="100%"/></linearGradient></defs><path style="transform:translate(0, 0px); opacity:1" fill="url(#sw-gradient-0)" d="M0,0L48,15.3C96,31,192,61,288,95.8C384,130,480,169,576,168.7C672,169,768,130,864,130.3C960,130,1056,169,1152,157.2C1248,146,1344,84,1440,57.5C1536,31,1632,38,1728,53.7C1824,69,1920,92,2016,115C2112,138,2208,161,2304,176.3C2400,192,2496,199,2592,199.3C2688,199,2784,192,2880,157.2C2976,123,3072,61,3168,42.2C3264,23,3360,46,3456,46C3552,46,3648,23,3744,42.2C3840,61,3936,123,4032,126.5C4128,130,4224,77,4320,46C4416,15,4512,8,4608,34.5C4704,61,4800,123,4896,157.2C4992,192,5088,199,5184,195.5C5280,192,5376,176,5472,161C5568,146,5664,130,5760,122.7C5856,115,5952,115,6048,111.2C6144,107,6240,100,6336,92C6432,84,6528,77,6624,95.8C6720,115,6816,161,6864,184L6912,207L6912,230L6864,230C6816,230,6720,230,6624,230C6528,230,6432,230,6336,230C6240,230,6144,230,6048,230C5952,230,5856,230,5760,230C5664,230,5568,230,5472,230C5376,230,5280,230,5184,230C5088,230,4992,230,4896,230C4800,230,4704,230,4608,230C4512,230,4416,230,4320,230C4224,230,4128,230,4032,230C3936,230,3840,230,3744,230C3648,230,3552,230,3456,230C3360,230,3264,230,3168,230C3072,230,2976,230,2880,230C2784,230,2688,230,2592,230C2496,230,2400,230,2304,230C2208,230,2112,230,2016,230C1920,230,1824,230,1728,230C1632,230,1536,230,1440,230C1344,230,1248,230,1152,230C1056,230,960,230,864,230C768,230,672,230,576,230C480,230,384,230,288,230C192,230,96,230,48,230L0,230Z"/></svg>